<?xml version="1.0" encoding="UTF-8"?>
<svg id="Layer_1" data-name="Layer 1" xmlns="http://www.w3.org/2000/svg" viewBox="0 0 48 64">
  <defs>
    <style>
      .diamond {
        fill: #36a7cd;
      }

      .arm {
        fill: white;
      }
      
      .backg {
        fill: black;
      }
    </style>
  </defs>
  <g>
    <rect class="backg" x="-8" width="64" height="64"/>
    <path class="arm" d="m39.84,26.11l-7.39-7.39v4.89l4.95,4.95c.94.94,1.46,2.2,1.46,3.53s-.52,2.59-1.46,3.53l-21.81,21.81v4.89l24.25-24.25c1.6-1.6,2.47-3.72,2.47-5.97s-.88-4.38-2.47-5.97Z"/>
    <path class="arm" d="m15.58,40.46l-4.98-4.98c-.94-.94-1.46-2.2-1.46-3.53s.52-2.59,1.46-3.53L32.44,6.58V1.69L8.16,25.98c-1.6,1.6-2.47,3.72-2.47,5.97s.88,4.38,2.47,5.97l7.42,7.42v-4.89Z"/>
    <path class="diamond" d="m33.3,33.33l-4.6,4.6-4.6,4.6-4.6-4.6-4.6-4.6c-.38-.38-.57-.88-.57-1.38s.19-1,.57-1.38l4.6-4.6,4.6-4.6,4.6,4.6,4.6,4.6c.38.38.57.88.57,1.38s-.19,1-.57,1.38Z"/>
  </g>
</svg>